<?xml version="1.0" encoding="utf-8"?>
<!-- Generator: Adobe Illustrator 23.0.6, SVG Export Plug-In . SVG Version: 6.00 Build 0)  -->
<svg version="1.1" id="Layer_1" xmlns="http://www.w3.org/2000/svg" xmlns:xlink="http://www.w3.org/1999/xlink" x="0px" y="0px"
	 viewBox="0 0 142.4 35.6" style="enable-background:new 0 0 142.4 35.6;" xml:space="preserve">
<style type="text/css">
	.st0{fill-rule:evenodd;clip-rule:evenodd;}
</style>
<g>
	<path class="st0" d="M67.8,13c0,2.8-0.3,11.5-0.3,11.5c0,1.7,0.6,2.4,2.2,2.4v0.8h-6.3V27c1.6,0,2.4-0.8,2.4-2.4l0.6-14.3
		c-0.5-1.1-0.9-1.5-2.2-1.6V8H69L74,21.4L79.2,8h4.3v0.7c-1.2,0-1.9,0.6-1.9,1.9l0.6,13.8c0,2.1,0.4,2.6,2.1,2.6v0.8H77V27
		c1.4,0,2.1-0.5,2-2.6c0,0-0.3-9.7-0.4-11.4l-3.5,9.6c-0.5,1.3-1,2.7-1.3,4.1l-1.1,0.1c-0.3-1-1-2.9-1-2.9S68.8,15.7,67.8,13
		L67.8,13z M61.8,27.8c-0.4-0.1-0.8-0.1-1.1-0.1c-0.8,0-2.1,0.4-3.7,0.4c-6.1,0-10.6-3.7-10.6-10.4c0-5.7,4.2-10.1,10.7-10.1
		c1.5,0,3.2,0.3,4.6,0.8C62,8.1,62.1,8,62.4,7.7H63c-0.1,1-0.5,4.4-0.5,4.4h-0.6c-0.4-2-1.4-3.3-4.7-3.3c-3.9,0-7.5,3.1-7.5,8.8
		c0,6.5,3.7,9.3,7.7,9.3c2.6,0,4.2-1.5,5.3-3.4l0.7,0.3L61.8,27.8L61.8,27.8z M44.1,11.7h-0.7c-0.1-1.8-0.7-2.3-2.1-2.3h-2.7v14.7
		c0,2.4,0.5,2.9,2.1,2.9v0.8h-7V27c1.6,0,2.1-0.5,2.1-3V9.4H33c-1.8,0-2.1,0.5-2.5,2.3h-0.7l0.5-4.2l0.5,0.1C31,8,31.3,8,32.5,8h9.1
		c1.7,0,2.1,0,2.4-0.6h0.6L44.1,11.7L44.1,11.7z"/>
	<path class="st0" d="M24.2,28.2c-1.3,0-2.3-0.2-3.1-0.5c-0.8-0.2-1.3-0.5-1.6-0.7c-0.4,0.4-0.7,0.8-0.7,0.8l-0.6-0.2l0.5-4.4
		l0.7,0.1c0.4,2.1,1.8,3.6,4.7,3.6c2.3,0,3.8-1.9,3.8-3.9c0-1.7-0.7-2.5-2.9-4.2c-0.8-0.5-1.4-0.8-2-1.3c-2.1-1.3-3.4-2.8-3.4-5.3
		c0-2.8,2.3-4.7,5.4-4.7c1.8,0,2.9,0.6,3.3,0.8L29,7.6l0.5,0.1l-0.5,4l-0.7-0.1c0-1.9-1.1-2.7-3-2.7c-1.8,0-3.1,0.9-3.1,2.7
		c0,1.6,1.2,2.6,2.6,3.6c0.8,0.5,1.3,0.8,1.9,1.2c3.3,2.3,4,3.8,4,6.1C30.8,25.8,28.2,28.2,24.2,28.2L24.2,28.2z M13.5,11.7h-0.8
		c0-1.7-0.8-2.3-2.3-2.3H6.3v7.4H9c1.4,0,1.7-0.8,1.9-2h0.7v5.3h-0.7c-0.2-1.4-0.5-2-2-2H6.3v6.3c0,2.3,0.6,2.6,2.1,2.6v0.8H1.2V27
		c1.8,0,2.1-0.5,2.1-2.6V10.6c0-1.3-0.6-1.9-2.1-1.9V8H11C12.7,8,13,8,13.3,7.4H14L13.5,11.7z M114.8,12.8v11.3
		c0,2.4,0.6,2.9,2.1,2.9v0.8h-11.1V27c0.8,0,1.6-0.3,1.6-0.8c0-0.4-0.1-1-0.3-1.7l-0.8-2.7H100c-0.1,0.4-1.2,3.5-1.2,4.3
		c0,0.8,0.8,0.9,1.4,0.9v0.8h-5.2V27c0.9,0,1.7-0.1,2.3-2.1l4.8-15.3c-0.3-0.7-0.7-0.8-1.3-0.9V8h4.2l5.1,16
		c0.5,1.7,0.9,2.5,1.7,2.9c1.1-0.4,1.4-0.8,1.4-2.9V10.6c-0.8-1.1-0.9-1.9-2.5-1.9V8h4.8l7.9,13.4V11.2c0-2.1-0.5-2.5-2.1-2.5V8
		h10.5v0.7c-0.7,0-1.2,0.3-1.2,0.9c0,0.5,0.2,0.9,0.4,1.5l3,6.5l2.9-6.3c0.5-0.8,0.6-1.3,0.6-1.8c0-0.6-0.4-0.8-1.2-0.8V8h5v0.7
		c-1.2,0-2,1.1-2.5,2.4l-3.8,7.9v5.2c0,2.3,0.6,2.8,2.1,2.8v0.8h-7.1V27c1.5,0,2.1-0.6,2.1-2.8v-4.4l-4.1-8.7
		c-0.7-1.7-1-2.1-1.5-2.3c-0.9,0.4-1.2,1-1.2,2.5v14.5c0,0,0.1,1.1,0.2,2.4l-1.2,0.1L114.8,12.8L114.8,12.8z M103,11.9l-2.6,8.5h5.4
		L103,11.9z"/>
	<path class="st0" d="M91.4,20.4H90v4c0,2.1,0.6,2.5,2.2,2.5v0.8h-7.2V27c1.5,0,2.1-0.6,2.1-2.6V11.1c0-2.1-0.6-2.4-2.1-2.4V8h5.4
		c5.3,0,8.3,1.6,8.3,5.9C98.7,18.5,95,20.4,91.4,20.4z M90.5,9.4H90V19h0.8c3.1,0,4.7-1.4,4.7-5S94.1,9.4,90.5,9.4z M58.6,24
		c-3.6,0-6-2.5-6-6.2c0-3.5,2.5-6.2,6-6.2c3.4,0,5.9,2.6,5.9,6.2C64.6,21.3,61.9,24,58.6,24z M58.6,12.7c-2.4,0-3.3,2.3-3.3,5.1
		c0,2.5,0.8,5.1,3.3,5.1c2.4,0,3.2-2.5,3.2-5.2C61.8,15.2,60.9,12.7,58.6,12.7z M17.4,22.9v-0.7c0.9,0,1.1-0.3,1.1-0.6
		c0-0.4-0.1-0.7-0.2-0.9c0,0-0.2-0.8-0.4-1.3h-3.7l-0.4,1.2c-0.1,0.3-0.2,0.6-0.2,0.9c0,0.4,0.4,0.7,0.9,0.7v0.7H11v-0.7
		c0.9,0,1.3-0.3,1.7-1.3l2.8-8.4c-0.1-0.4-0.4-0.7-0.9-0.7v-0.7h3c1,3,2.1,6,3.1,9c0.5,1.6,0.9,2.1,1.7,2.1v0.7H17.4z M16,13.8
		l-1.4,4.6h2.9L16,13.8z"/>
</g>
</svg>
