<svg xmlns="http://www.w3.org/2000/svg" viewBox="0 0 2918 2248.61"><title>deloitte-2018</title><g id="Layer_2" data-name="Layer 2"><g id="Layer_1-2" data-name="Layer 1"><g id="SWT5CE"><path d="M0,1120c5.33-.1,10.66-.3,16-.3H2905c4.32,0,8.65.2,13,.3v6c-6-.13-12-.38-18-.38q-1440.1,0-2880.21-.09c-6.61,0-13.21-1-19.81-1.53Z"/><path d="M2048,0q-.54,35.42-1.13,70.84c0,.57-.64,1.13-1,1.69-10.81,2.28-12.19,1.45-12.32-8.51-.14-11.32.06-22.64.11-34,0-2.81,0-5.62,0-8.43l-1.93-.33c-1.14,2.94-2.41,5.84-3.41,8.83-4.13,12.31-8.25,24.63-12.22,37-1.37,4.24-3.46,6.85-8.42,6.83-6.48,0-7.81-.57-10-7.23-3.66-11.41-7.07-22.91-10.65-34.34a34.24,34.24,0,0,0-4.09-8.93c-1.85,16.39.23,32.83-1.83,49.68h-12.46c-.24-24.75-.48-48.93-.71-73.12h22c4.59,18.12,10.53,35.8,16.12,53.59h2.7Q2017.42,26.79,2026,0Z"/><path d="M1956,0V12.4c-4.71.41-8.29.7-11.85,1-6.74.62-7.65,1.36-7.78,8.82-.22,12.65,0,25.31-.12,38,0,3.93-.36,7.86-.6,12.85l-12.86.58c-.41-4.37-1-7.9-1-11.43-.12-13,.07-26-.11-39-.12-8.89-.7-9.25-9.8-9.89-2.92-.21-5.82-.63-9.87-1.09V0Z"/><path d="M2725.92,1393.07c.07,20.73-1.37,41.33-8.3,61a111.24,111.24,0,0,1-10.82,22.37c-7.93,12.58-19.66,20.65-33.94,24.76-14.67,4.23-29.68,4.38-44.54,1.72-20.61-3.68-35.77-15.37-45.81-33.72-7.3-13.33-11.25-27.71-13.29-42.67a252.43,252.43,0,0,1,2-82.45,124.53,124.53,0,0,1,4.51-16.35c10.78-31.5,33.26-48.18,66.46-49.47,37.46-1.47,63.8,16.92,75.51,52.7C2723.41,1348.6,2726,1367.76,2725.92,1393.07Zm-58.49-.73-1.16-.07c0-7.64,0-15.28,0-22.92a33.55,33.55,0,0,0-.3-7c-2-9.35-3-19.21-6.76-27.84-5.07-11.64-18.71-12-25.33-1.09a42.19,42.19,0,0,0-5.42,15.85,318.72,318.72,0,0,0-.14,84.44,55.85,55.85,0,0,0,3.84,13.36c2.39,5.94,6.86,10,13.49,10.27,7.13.28,11.9-3.88,14.64-10.08A41.58,41.58,0,0,0,2664,1435C2665.46,1420.79,2666.34,1406.55,2667.43,1392.34Z"/><path d="M2745.43,1388.74c1.41-12.67,2.9-27.55,4.79-42.37a88.54,88.54,0,0,1,3.53-14.54c14.26-46.55,62.39-67.54,106.44-46.3a64.33,64.33,0,0,1,32.57,35.09,168,168,0,0,1,9.75,34.44c5.27,32.2,4.37,64.37-4.38,96-4.64,16.76-12.88,31.41-27.65,41.5a57.55,57.55,0,0,1-10.45,5.77c-19.55,8.06-39.67,8.25-59.71,2.72-18.38-5.06-31-17.5-39.73-34.17-6.71-12.86-10.24-26.75-12.06-41C2747.06,1414.34,2746.56,1402.69,2745.43,1388.74Zm59.33,2.3,1.29.06c0,9.64-.66,19.33.19,28.89a136.79,136.79,0,0,0,5.11,26.27c2,6.78,7.32,11.32,14.91,11.12,7.1-.2,11.61-4.72,13.95-11.08a74.85,74.85,0,0,0,3.85-14.38c3.55-23.14,2.64-46.43,1.31-69.64-.5-8.81-3-17.65-5.66-26.14-1.86-5.91-6.41-10.08-13.38-10.2-7.27-.13-11.95,3.74-14.53,10.09-1.72,4.28-3.36,8.8-3.82,13.34C2806.59,1363.23,2805.79,1377.14,2804.76,1391Z"/><path d="M15.06,2040.57c2.93-.22,6.17-.67,9.41-.68,19.66-.06,39.35-.54,59,.18a170,170,0,0,1,34.55,4.52c36.33,9,59.38,35.87,64.18,73.22a156.86,156.86,0,0,1-1.72,51.69c-7.71,37.95-33,68.94-81.72,74.3-26,2.87-52.57,1.43-78.88,1.86a22.5,22.5,0,0,1-4.6-.82C12.52,2236.76,12.25,2050.69,15.06,2040.57Zm54,46.17v112.72c7.61-.61,14.45-1,21.25-1.73,13.67-1.52,24-8.44,29.12-21.15,9-22.44,9.13-45.42,1-68.17-3.78-10.66-11.78-17.39-22.88-20.37C88.45,2085.57,79.27,2086.23,69.07,2086.74Z"/><path d="M2455.25,1359c10.67-.41,19.62-1.19,28.55-1,29.6.57,53.7,19.82,61,48.48a90.64,90.64,0,0,1-1.14,49.32c-5.62,18.61-17.16,32.36-35.16,39.8-8.53,3.52-17.67,6.52-26.79,7.52-24.95,2.76-49.89,2.35-74.21-5.26-11.27-3.53-11.9-4.33-12-16.09-.05-8.33-.09-16.66,0-25,.05-3.18.59-6.35,1-10.77l10.46,3.26c15.63,4.8,31.33,9.47,47.9,8.76a55.26,55.26,0,0,0,16.53-3.14c10.78-4,16.5-13.5,16.19-25.1-.29-11-6.33-19.66-17.12-23.38a60.9,60.9,0,0,0-38.38-.63c-11.93,3.75-20.71-1.55-29.79-6.84-1.82-1.07-2.83-5.07-2.71-7.64.73-16.3,1.8-32.58,2.92-48.85,1.13-16.61,2.5-33.19,3.64-49.8.71-10.26,1-10.86,11-10.89q52-.12,103.92,0c10.51,0,11,.66,11.12,11.57.09,8,.06,16,0,24-.06,12.76-.3,13-12.67,13.08-16,.06-32,0-48,0-2.66,0-5.32.1-8,.15-4,.07-6.25,2.2-6.62,6C2456.34,1343.79,2455.87,1351,2455.25,1359Z"/><path d="M1413.7,1360.44c5.61,11.28,8.34,21.57,7.62,32.37-1.58,23.89-14.51,39.31-36.61,47.53-12.8,4.77-26.13,4.77-39.45,4.05-6.08-.33-10.27,2-13.5,6.7-6.19,9.05-2.48,17.58,8.51,18.43,10.61.83,21.31.47,32,1,10,.5,20,.73,29.78,2.46,17.19,3.07,30.94,11.64,35.08,29.77,4.37,19.14,1.81,37.2-13.29,51.62-12.29,11.75-27.67,17-44,19.82-19.81,3.42-39.83,4-59.55-.07-8.63-1.8-17.55-4.78-25-9.43-26.72-16.8-25-54.83,2.62-70,3.77-2.07,7.82-3.61,12.6-5.79-8.54-7.47-14.54-15.69-13-27.48,1.48-11.58,10.63-17.1,18.7-24.35-2-1.59-3.69-3-5.47-4.29-19.4-14-23.87-33.78-20.67-55.84,3-20.61,15.2-34.21,34.82-41.21,14.5-5.18,29.49-4.52,44.47-3.9,13.93.58,27.86,1.48,41.8,1.93,9.24.3,18.49.06,27.65.06.85,2.47,1.52,3.66,1.63,4.89,1.39,15.72,1.24,15.9-13.79,19C1422.85,1358.49,1419,1359.31,1413.7,1360.44Zm-67.36,191.41c10.6-1.06,18.63-1.32,26.44-2.79,9.84-1.84,19.38-4.94,26.31-13,10.83-12.54,6.09-28.12-9.79-32.17a29,29,0,0,0-6.81-1.32c-15.29-.16-30.62-.73-45.86.11-6,.32-12.29,3-17.48,6.24-11.38,7-15,30.81,4.53,37.71C1331.71,1549.52,1340.39,1550.53,1346.34,1551.85ZM1386.11,1390c-.83-5.07-1.21-9.4-2.29-13.55-3.42-13.22-11.33-19.63-24.84-20.37a83.89,83.89,0,0,0-9,.1c-11.78.6-19.2,7.13-22.68,17.92a46.15,46.15,0,0,0-2.26,15.72c.47,11.32,3.09,22.16,14.67,27.53,10.13,4.71,20.67,4.45,31,.31a20,20,0,0,0,11.87-12.8C1384.24,1399.86,1385.06,1394.59,1386.11,1390Z"/><path d="M1952.31,1479.19c-3.93,3.81-6.59,6.24-9.09,8.83-9.76,10.07-21.88,14.94-35.63,15.94a149.47,149.47,0,0,1-18,.17c-24.85-1.24-42.26-17.61-45.26-42.35-.2-1.65-.2-3.32-.34-5-2.85-35.12,14.75-51.54,44.64-58.16,13.54-3,27.69-3.23,41.57-4.63,3-.29,6,0,9-.31,5.89-.61,7.33-2.65,6.41-8.6-1.36-8.89-7.47-15.23-17.15-15-9.86.25-19.76,2.09-29.46,4.14-6.75,1.43-13.17,4.4-21.06,7.14-6.18-11.92-11.11-24-16.41-37.21,3.27-1.86,5.87-3.86,8.81-4.94,27.68-10.18,56.17-14.14,85.38-9.13,30.88,5.29,48.12,25.41,48.51,56.58.44,35,.21,69.92.14,104.88,0,9.66-.67,10.15-10.25,10.3-7.32.11-14.67-.28-22,.11-5.88.31-9.28-2.13-11.62-7.3C1958.39,1489.9,1955.64,1485.38,1952.31,1479.19Zm-7.51-52.41c-10.86-1.77-21-1.19-30.63,3.35a19.27,19.27,0,0,0-9.62,23.79c2.58,7.42,11.06,11.11,21,9.1C1942,1459.67,1949,1447,1944.8,1426.78Z"/><path d="M1759.45,1501.32H1703.2a107.77,107.77,0,0,1-1.06-10.76q-.11-98.44,0-196.91c0-2,.07-4,.15-6,.15-3.54,2-5.55,5.54-5.76q3.49-.2,7-.19,52.48,0,105,0c2,0,4,.09,6,.15,4,.11,6.2,2.06,6.2,6.16q0,17,0,34c0,4-2.08,6.16-6.1,6.32-2.66.11-5.33.18-8,.19-15,0-30,0-45,0-12.4.06-12.63.35-12.7,13.13,0,6.66-.11,13.33,0,20,.21,8.83,1.1,9.68,9.76,10,2.32.09,4.66,0,7,0,12.33,0,24.66,0,37,0,12,.06,12.26.31,12.34,12.36,0,9,.15,18-.08,27-.18,7-1.15,8-8.32,8.14-14.65.23-29.31.08-44,.12-13.68,0-13.71.06-13.74,14,0,18.66,0,37.31,0,56C1760.11,1492.93,1759.73,1496.51,1759.45,1501.32Z"/><path d="M2166,1343.83c-5.18,12.12-10.09,23.62-15.24,35.69-7.91-2.6-14.69-5.29-21.71-7-8-2-16.25-3.3-24.44-4.55a14.43,14.43,0,0,0-7.84.77c-2.45,1.15-5.26,3.34-6,5.68-.56,1.75,1.33,5.24,3.15,6.59a65.42,65.42,0,0,0,12.16,6.74c10.6,4.82,21.5,9,32,14.15,27.11,13.27,37.69,43.24,25.37,71-5.12,11.51-13.53,20.11-25.25,24.28-9.3,3.31-19.19,5.91-29,6.65-19.92,1.51-40,1.41-59.54-3.77-3.54-.93-7.25-1.62-10.45-3.25-2-1-4.61-3.6-4.67-5.54-.41-13.22-.22-26.46-.22-41.34,4.9,1.33,8.28,2.15,11.6,3.17,15.94,5,32,9.56,48.86,9a37.54,37.54,0,0,0,11.71-2c6.59-2.42,7.53-8.65,2.23-13.26a27.8,27.8,0,0,0-6.81-4.1c-9.39-4.28-18.91-8.27-28.27-12.61-5.42-2.52-10.75-5.3-15.92-8.29-23.57-13.68-25.59-36.31-22.94-53.19,2.09-13.31,10.11-22.88,21.46-29.83,9.91-6.06,20.93-8.48,32.23-9.83,25.45-3,49.73,1.49,73.06,11.73C2162.7,1341.23,2163.68,1342.18,2166,1343.83Z"/><path d="M640.61,1501.89H604.32c-.24-4.26-.64-8.12-.65-12-.06-30,.09-59.94-.15-89.91a76.57,76.57,0,0,0-2.34-18.72c-3.1-11.79-11.8-18.17-23.95-19-33.75-2.45-43.33,14.11-46.59,39.3-1,7.56-.84,15.29-.87,22.94-.11,21.65,0,43.29-.08,64.94,0,3.91-.5,7.82-.81,12.37H493c-.31-4.15-.8-7.72-.81-11.28q-.06-105.9,0-211.8c0-1.33,0-2.66.05-4,.41-7.81,1.07-8.63,8.72-8.8s15.31,0,23,.1c1.28,0,2.55.56,5.22,1.2,1.33,14.28.46,28.85.61,43.36.15,14.19,0,28.38,0,43.16,1.52-1.52,3.07-3,4.56-4.57a54.71,54.71,0,0,1,40-17.55c7-.13,14.1-.4,20.91.79,28,4.9,43.68,22.88,45.12,51.47.45,9,.26,18,.27,27q0,39,0,77.92Z"/><path d="M506.3,2089.73c42.16-.16,70,25.26,74.51,67.42a104.71,104.71,0,0,1-2.85,39.58c-7.78,27.94-25.92,44.74-54.85,50a88.35,88.35,0,0,1-38.55-1.22c-24.54-6.38-40.58-22.26-48.3-46.13-6.75-20.84-6.51-42.1.08-62.93,8.37-26.47,29-43.75,61-46.7C500.28,2089.49,503.3,2089.73,506.3,2089.73Zm-21.52,78.88c1.26,8.13,1.86,16.8,4.06,25,2.59,9.72,9.11,14.07,18.12,14s14.83-4.45,17.64-14.55a91.64,91.64,0,0,0,.29-48.22c-2.58-9.94-8.54-14.43-17.59-14.63-9.83-.21-16,3.94-18.77,14.27C486.52,2152.14,486,2160.16,484.78,2168.61Z"/><path d="M1037.85,2202c2.69,11.74,5.25,22.88,8,34.74-5.53,2.27-10,4.52-14.64,5.93a130,130,0,0,1-65.05,3.1c-29.34-6.16-48.8-26.63-53.74-57.22-2.67-16.5-2.29-33.2,2.25-49.51,7.36-26.42,25.33-45.46,58.71-48.93a117.68,117.68,0,0,1,32.69,1.71c27,4.92,44.76,24.17,48.27,51.48,1.31,10.18,1.43,20.55,1.57,30.85.11,8.88-.86,9.75-9.7,9.8-23,.13-45.94.05-68.9.05H965.51c.33,12.55,6.17,20.08,17.49,23.53,13.25,4,26.34,1.63,39.37-1.31C1027.17,2205.14,1031.87,2203.65,1037.85,2202Zm-30.92-53.2c-1.46-15.48-9.66-23.31-22.13-22.26-11.41.95-18.63,9.79-17.6,22.26Z"/><path d="M251.52,2184c2,16.3,11.22,24.42,27.39,25.43,12.07.76,23.85-1.3,35.43-4.6l8.34-2.41c4,7.32,7.92,23.13,8.49,35.22-6.74,2.28-13.74,5.27-21,7-19.32,4.6-38.86,5.39-58.32.95-30.08-6.86-49-27.79-53.47-59.76a115.42,115.42,0,0,1,2.1-44.63c7.54-29.58,27.72-47.64,58.05-51.14,12.24-1.41,24.63-1.2,36.69,2,22.75,6.09,37.8,20.13,44,43.13,4.14,15.35,3.18,30.93,2.79,47.65-4.38.41-8.2,1.06-12,1.07-22.3.1-44.6.05-66.91.05Zm40.93-35.18c1.21-12.63-6.47-21.8-18.29-22.31-12.82-.56-21.51,8.47-20.82,22.31Z"/><path d="M483.71,1735.73c-5.21-4.64-9.56-8.24-13.61-12.15-8.49-8.23-12.93-18.53-13.93-30.15-1.31-15.16,4.48-27.35,16.82-36.22a62.22,62.22,0,0,1,33.46-11.59c13-.71,26-.74,38.37,4.15,15.81,6.24,27.63,16.07,29.86,34.11s-4.5,32.52-19.2,43.23c-3.43,2.5-7,4.87-10.93,7.62,6.75,5,13.12,9.22,18.87,14.14,11.15,9.53,17.57,21.36,17.33,36.55s-6.45,26.9-18.11,36.1c-9.44,7.44-20.5,11.22-32.15,12.48-13.9,1.51-28,1.7-41.63-2.15-18.3-5.16-32.91-14.83-37.19-34.89-4.53-21.26,2.36-38.66,19.18-52.18C474.68,1741.7,478.89,1739.1,483.71,1735.73Zm32.4,70.1c4.23-.87,8.92-1.34,13.25-2.82,12.65-4.32,17.95-18.72,10.72-30A40.55,40.55,0,0,0,528.93,1762c-5-3.44-11.3-8.45-16.35-7.76-8.39,1.16-15.25,7.68-20.18,15.06-9.62,14.42-3.3,30.51,13.53,34.7C509.12,1804.74,512.41,1805.16,516.11,1805.83ZM516,1674.55c-12.72-.17-21.62,7.36-21.59,18.26,0,9.83,13.17,24.56,21.61,24.23,8.72-.35,21-14,21.23-23.64C537.48,1682.66,528.52,1674.71,516,1674.55Z"/><path d="M2302.42,1374.71c-8.27.25-15.14.56-22,.65-21.43.27-19.95-2.54-20,19.79,0,14-.2,28,.09,42,.36,17.78,5.84,22.65,23.46,20.84,6.51-.67,12.92-2.32,20-3.64.63,2.82,1.5,5,1.54,7.13.17,8.66-.18,17.33.18,26,.25,6-2.27,9.52-7.93,10.81-9.05,2-18.06,4.6-27.24,5.69-7.87.93-16,.46-23.94,0-23.18-1.29-38-13.94-42.28-36.56a145.85,145.85,0,0,1-2.25-24.79c-.33-18.65-.05-37.31-.14-56-.06-10.46-.32-10.58-10.41-11.3-2.89-.2-5.76-.74-9.77-1.28,0-6.93-.25-13.19.14-19.4.14-2.07,1.79-4.13,3.06-6a8.07,8.07,0,0,1,3.14-2.43c16.28-7.75,24.08-21.9,29.78-38.08,4.16-11.79,4.69-11.62,17.38-11.64,6,0,12,.09,18,.08,5,0,7.21,2.52,7.16,7.43-.07,6-.1,12,.1,18,.27,8.28,1.16,9.24,9.27,9.47,7.65.23,15.32,0,23,.14,8.38.22,9.48,1.15,9.64,9.08C2302.59,1351.63,2302.42,1362.55,2302.42,1374.71Z"/><path d="M300.44,1739.54c.24,20-1.42,38.9-8.1,57-7,19-19.56,32.84-40.09,36.64-34.26,6.34-60.41-3.55-73.57-38.58-8.11-21.57-9.42-44.24-7.89-67a280.43,280.43,0,0,1,5.12-35.51,67.87,67.87,0,0,1,6.65-17.69c12-23.11,32.33-31,56.46-30,28,1.19,45.25,17,54.08,42.86C299,1704.56,300.81,1722.37,300.44,1739.54Zm-39.55.56-1.34-.08c0-7.32.83-14.77-.2-21.94a164.77,164.77,0,0,0-6.69-29c-2.68-7.94-9.39-11.63-18.08-11.41-8.38.21-13.7,4.65-16.92,11.85a52.77,52.77,0,0,0-3.57,11.38,188.43,188.43,0,0,0-2.52,58.65,172.18,172.18,0,0,0,6.11,30.15c2.41,7.77,8.52,12.21,17.51,12.22s14.55-4.18,17.82-11.88c1.94-4.56,3.79-9.37,4.42-14.23C259,1764,259.78,1752,260.89,1740.1Z"/><path d="M1615.26,1333.86c-1.83,5.67-2.69,8.82-3.84,11.85-21.94,58.25-43.7,116.58-66.08,174.66a152.47,152.47,0,0,1-16.75,31.59c-13.83,20-40.27,30.79-72.36,21.52-2.45-7.86-2.62-16.42-.29-27.36,3.9,0,8.1-.31,12.24.06,20.74,1.84,31.15-7.3,38.69-23.34.28-.6.52-1.22.78-1.83,7.9-18.12,7.88-18.11.44-36.64q-27.54-68.58-55-137.18c-1.44-3.6-2.54-7.32-4.28-12.37,5.17-.38,9-1,12.8-.91,32.43.74,23.91-5.66,35,24.32,9.93,26.85,19.33,53.89,28.76,80.91,2.5,7.15,4.22,14.57,6.55,22.72.95-1.25,1.64-1.8,1.87-2.5q19.37-57.75,38.68-115.5c3.34-9.95,3.46-9.94,14.15-10C1595.51,1333.83,1604.41,1333.86,1615.26,1333.86Z"/><path d="M1270.36,1418.62c-2,12-2.95,23-5.84,33.5-8.31,30.24-31,48.65-62.18,52.68a92.44,92.44,0,0,1-34.65-1.74c-31.1-7.8-48.44-29-55.34-59.33a118.09,118.09,0,0,1,1.45-58.36c9-32.42,35.23-52.89,68.77-53.79,11-.3,22-.37,32.68,2.89,24.94,7.6,41.16,24.27,48.64,48.78C1267.45,1394.89,1268.38,1407.33,1270.36,1418.62Zm-123.5-1.46c1.62,10.44,2.41,20.09,4.72,29.36,4.33,17.48,16,27.27,34,28.57,19.11,1.38,34.54-6.18,40.58-24.93,7-21.55,7-43.17-.37-64.63-4.08-11.87-12.48-19.6-24.66-22.5-4.76-1.13-9.92-.88-14.89-.79-17.34.31-28.46,7.81-33.55,24.36C1149.62,1396.64,1148.67,1407.33,1146.86,1417.16Z"/><path d="M934.75,1331.56c43.71-1.08,72.24,28,77.78,68.79,2.52,18.47,1.79,36.65-4.12,54.29-9.84,29.32-30.34,45.81-61.14,50.11a90.25,90.25,0,0,1-34.66-1.59c-32.41-8.06-49.71-30.42-56.28-62A118.43,118.43,0,0,1,858,1386.7c8.71-33.41,35.3-54.32,69.77-55.14C930.09,1331.51,932.42,1331.56,934.75,1331.56Zm41.81,89.1c-1.21-10-1.73-17.59-3.13-25.07-4.31-23-17.71-33.73-41.08-33.44-19.44.23-30.34,8-36,26.75a99.88,99.88,0,0,0,.09,59c5.53,18,17.26,27.1,36,27.37,19.35.28,32.36-7,38.27-25.53C974,1439.71,975,1429,976.56,1420.66Z"/><path d="M320.13,1426.64H212.07c-5.34,19,7.39,41,26,46.72,12.37,3.78,25.1,3.34,37.58,1.24,9.44-1.58,18.6-4.83,27.88-7.33,2.46-.66,4.92-1.3,8.68-2.29,0,9.06.38,17-.25,24.86-.18,2.29-2.84,5.43-5.1,6.32a119.63,119.63,0,0,1-21.84,6.75c-17.07,3.14-34.33,4.39-51.56.86-34.31-7-56.66-31.22-61.21-67.44-2.17-17.23-1.49-34.55,3.47-51.48,9-30.72,33.93-54.16,70.86-53.24,8.89.22,18.07.87,26.55,3.29,27.27,7.77,44.42,30.64,46.88,61.81C320.76,1406.19,320.13,1415.79,320.13,1426.64Zm-109.63-27.5h73.11c-.41-13.79-3-26.08-14.59-33.62-12.64-8.21-26.67-8.17-39.74-1S211.69,1384.17,210.5,1399.14Z"/><path d="M825.37,1502.07H790.11c-.32-4.12-.84-7.93-.85-11.75-.08-27.31,0-54.62-.11-81.92a180.51,180.51,0,0,0-1.37-20.91c-2-16.48-11.47-24.92-27.87-25.3a87.27,87.27,0,0,0-11,.21c-13.76,1.41-23.68,8.16-28.77,21.31-4.66,12-5.43,24.68-5.55,37.33-.24,23-.08,46-.08,68.93v11.63c-12.5,1.5-23.91,1-35.12.4-2.15-8.11-2.69-154.26-.66-167,7.8-2,16.08-1.28,24.22-.58,1.82.15,4.14,3.1,4.91,5.24,1.64,4.6,2.43,9.52,3.78,15.21,1.84-1.23,3-1.71,3.74-2.56,12-14.16,27.73-20.33,45.82-20.62a117.33,117.33,0,0,1,23.76,1.83c22.18,4.19,34.76,18.42,39.15,40.06a108.61,108.61,0,0,1,2,20.84c.21,32.63.13,65.27.08,97.9C826.2,1495.2,825.72,1498.1,825.37,1502.07Z"/><path d="M745,2132c-.83,3.58-1.51,5.17-1.52,6.76-.08,17.31-.37,34.63.06,51.93.3,11.93,6.47,16.43,18.45,14.32,6.11-1.08,12.13-2.69,19.6-4.38,0,12.75.18,24.27-.2,35.78-.06,1.65-2.55,4-4.41,4.69-20.78,8-42,10.55-63.26,2.34-13.06-5-19.16-16.16-21.67-29.15a142.37,142.37,0,0,1-2.21-23.8c-.33-15.31-.07-30.63-.12-45.95,0-3.58-.29-7.15-.47-11.25l-16.75-1.63v-38.91l17.24-1.89v-16c0-5,.17-10,0-15-.14-4.38,1.74-7,6-7.73,15-2.57,30.06-5,46.2-7.75,3.23,15.63-.43,31,2.59,47.15,7.61.06,14.83,0,22,.2,8.53.19,9.22.77,9.36,9,.18,9.92,0,19.84,0,31.17Z"/><path d="M900.32,2200.63c0,12.58.22,23.52-.19,34.43a8,8,0,0,1-4.18,5.83c-21.06,8.48-42.64,11-64.12,2.21-15.82-6.51-21.19-20.83-22.13-36.39-1.23-20.26-1-40.6-1.39-60.9-.08-3.93-.35-7.85-.58-12.56l-16.48-1.35a181.27,181.27,0,0,1,0-39.17l15.18-1.6c3.28-6.45,1.67-13.21,1.78-19.71.38-23.41-1.49-17.47,18.89-21.7,7.48-1.55,15.05-2.66,22.61-3.81,3.53-.53,7.12-.68,12.15-1.13v46.89h32c.88,13.85.48,26.32.3,39.65-10.35,2.74-20.8-.1-30.62,1.84-.58,1.4-1.27,2.29-1.28,3.19-.07,19-.36,38,.06,56.94.19,8.52,5.11,12.48,13.84,12.06,4.61-.22,9.17-1.5,13.73-2.38C892.86,2202.4,895.71,2201.68,900.32,2200.63Z"/><path d="M45.44,1697.13l-21.29-24.94a86.68,86.68,0,0,1,32.6-21.81c15.92-6.25,32.69-7,49.23-4.18,32.38,5.52,49.49,33.43,41.2,65.46-3.89,15-12.64,27.2-23.12,38-13.21,13.63-27.2,26.51-40.9,39.67-2.32,2.23-4.83,4.27-7.25,6.39.32.74.63,1.47,1,2.2l76.81.51v31.91c-6.76,2.57-110.44,3.57-127.27,1.25-5.37-13-3.07-25.9,6.06-35.3,20.64-21.29,41.36-42.52,61.73-64.06,7.63-8.06,13.36-17.35,14.6-28.94,1.67-15.62-6.54-25-22.31-24.83-11.53.11-21.12,5.36-30.39,11.44C52.8,1692.07,49.57,1694.32,45.44,1697.13Z"/><path d="M83.45,1312.52H19.35c-2.17-9.65-1.39-18.6-.74-27.43.13-1.76,3-3.89,5.11-4.78s4.59-.35,6.92-.35q71.49,0,143,0c2.33,0,4.67.06,7,.19,3.64.2,5.39,2.29,5.41,5.83,0,8.26,0,16.51,0,26.17-21.84.89-42.69-.05-64.44.6-.3,4.48-.78,8.35-.79,12.22q-.08,81.48,0,163v13.59c-12.52,1.76-24,.69-36.47.8-1.7-21.62-.61-42.5-.8-63.33-.2-20.66,0-41.32,0-62Z"/><path d="M361.16,2040.05h51.5c.33,4,.88,7.5.89,11q.07,91.38,0,182.76c0,2-.08,4-.18,6-.18,3.48-1.84,5.76-5.49,5.78q-21,.1-41.93,0c-3.59,0-5.41-2.19-5.57-5.72q-.18-4-.18-8,0-89.38,0-178.76C360.27,2048.91,360.83,2044.7,361.16,2040.05Z"/><path d="M469.65,1342.46c-3.55,9.33-6.94,18.24-10.54,27.72-3.28-.78-5.78-1.32-8.25-2-6.42-1.69-12.74-4.07-19.26-5-24.23-3.57-43.7,3.51-50.1,31.81-4.25,18.82-4.15,37.69,2.76,56,4.41,11.69,12.49,20.28,24.93,22.08,9.39,1.36,19.27.59,28.78-.54,6.48-.76,12.69-3.76,19-5.79,2.44-.78,4.86-1.66,7.93-2.71,2.23,9.88,1.31,19.09.75,28.23-.1,1.54-2,3.41-3.59,4.33a44.2,44.2,0,0,1-9.08,4,108.71,108.71,0,0,1-57.11,2.51c-25.33-5.7-41.95-21.4-49.59-45.77a125.31,125.31,0,0,1,.45-77.64c9.19-28.24,29.84-43.53,58.58-47.49,18.58-2.56,37.21-1.13,55.14,5.31,1.87.67,3.73,1.41,5.54,2.25A32.08,32.08,0,0,1,469.65,1342.46Z"/><path d="M2029.92,1672.91c-1.3,3-2.67,6-3.9,9q-28.41,69.88-56.89,139.75c-1.73,4.22-1.62,10.51-8.65,10.68-7.68.18-7.56-6.64-9.38-11.1-19.27-47.18-38.29-94.46-57.41-141.7a19.3,19.3,0,0,0-5.55-8.22v160.2h-12.08c-2.46-7.68-2.9-171.74-.26-183.68,5.18-.09,10.7-.35,16.22-.22,4.79.11,5.33,4.42,6.66,7.68q11.88,29.14,23.62,58.35,17,42.16,34,84.34c1.08,2.68,2.43,5.25,4.33,9.31,2-4.31,3.45-7.16,4.64-10.12q27.27-67.65,54.48-135.33c6.5-16.17,7.39-16.65,25.08-13.2,2,8,2.26,172.58.08,183h-12.58c-1.24-17.62-.4-35.18-.55-52.7s0-35.33,0-53v-52.79Z"/><path d="M413.32,1831.94H374.8c-1-15.66-.37-30.92-.48-46.13-.11-15.67,0-31.34,0-47v-46.13l-31,25.58c-6.75-4.52-13.8-12.81-20.62-24.38,1.76-1.23,4-2.62,6-4.24,15.67-12.42,31.37-24.8,46.91-37.4,4.09-3.31,8.26-5.1,13.63-4.86,7.92.35,15.86.09,23.43.09C415.26,1656,415.75,1819.87,413.32,1831.94Z"/><path d="M1079.75,1266.41v235.25H1045.1c-2-8-2.6-221.56-.52-235C1055.63,1265.1,1067,1265.77,1079.75,1266.41Z"/><path d="M652.5,2244.85c-3.64.39-6.23.89-8.82.91-11,.09-22,.14-32.93,0-10-.12-10.43-.71-10.63-11,0-1,0-2,0-3V2105.05c0-2.32.06-4.65.13-7,.1-4,2-6.2,6.11-6.19H652.1c.48,4.32,1.2,7.82,1.2,11.31q.12,65.86,0,131.74C653.32,2237.86,652.85,2240.8,652.5,2244.85Z"/><path d="M876.54,1831.05c-8.94,3.17-14.27.8-19.13-6.57-31.53-47.85-63.48-95.43-95.3-143.08-2-2.92-4.08-5.73-6.19-8.69v158.82H743.43c-2.17-7.47-2.66-170.88-.59-182.4,11.47-3.18,12.35-2.92,18.73,6.64q47.17,70.67,94.31,141.34a25.49,25.49,0,0,0,7.55,8V1648.22h12.89c.34,3.51,1,7,1,10.51q.11,81,0,162C877.31,1824.24,876.79,1827.81,876.54,1831.05Z"/><path d="M1000.52,1834.77c-42.55,1.13-71.81-26.15-80-67.47-4.08-20.53-3.93-41.13,1.49-61.37,8.2-30.59,26.42-51.85,58.29-59.27a91.06,91.06,0,0,1,50.15,2.33c22,7.3,37,22.32,45.1,43.6,11.82,31,12,62.64.17,93.68C1065.64,1812.72,1041.43,1835.92,1000.52,1834.77Zm68.14-94.84c-.7-7.94-1-16-2.24-23.81a98.83,98.83,0,0,0-4.77-18.29c-4.93-13.55-13.22-24.51-26.07-31.67-40.7-22.71-89.27-1-99.12,44.33-3.57,16.46-3.69,33.14-1.47,49.67a100.88,100.88,0,0,0,7.4,25.77c7,16.42,19.16,28.17,36.69,32.69a102,102,0,0,0,26.62,2.8c26.77-.36,46.93-15.2,56.2-40.24C1066.83,1767.86,1068.36,1754.05,1068.66,1739.93Z"/><path d="M1139.47,1752.42v79.18h-13.35c-2.26-9.29-2.27-173.81,0-183.35a72.52,72.52,0,0,1,7.49-.74c15.31,0,30.67-.55,45.94.39a107.34,107.34,0,0,1,28.17,5.54c18.21,6.32,27.48,20.08,28.88,39.23,1.45,20-3.9,37-21.72,48.22-4.73,3-10,5.14-16.07,8.21,15.12,27.73,32.68,53.78,47.58,81.62-13.54,3.42-14.64,3.08-20.47-6.72-12.58-21.17-25.35-42.25-37.51-63.67-3.45-6.07-7.42-8.36-14.24-8C1163.32,1752.79,1152.39,1752.42,1139.47,1752.42Zm.18-13.13c17.34.47,33,2.15,48.37-.81,27.43-5.29,39.19-25.59,31.77-52.79-3-10.92-9.79-17.83-20.37-21.38-19.12-6.4-38.66-3.53-59.84-4C1139.46,1687,1139.37,1712.45,1139.65,1739.29Z"/><path d="M2244.08,1752.42v79.3h-12.33c-2.41-7.92-2.79-172.22-.53-182.61.54-.36,1.06-1,1.61-1,22.94-.6,45.92-2.21,68.73,1.73,22.66,3.91,37,18.22,40.3,39.84,3.6,23.62-6.51,44-26.85,54.19-3.24,1.61-6.56,3.05-11,5.09,15.17,28,32.8,54.06,47.75,81.91-13.88,3.29-14.77,3-21-7.58-12.58-21.2-25.25-42.36-37.58-63.71-3-5.24-6.6-7.48-12.72-7.25C2268.92,1752.73,2257.34,1752.42,2244.08,1752.42Zm.71-13.53c16.57,0,32.32,1.77,47.52-.4,25.93-3.7,36.77-19.77,33.86-45.88-1.86-16.78-10.21-26.29-27.12-30-17.36-3.8-35-2.73-52.52-1.64-.51,0-1,.83-1.74,1.54Z"/><path d="M1454.94,1648.05h12.84c1.85,26.54,0,53,1.09,79.16,8.1,2.62,94.47,2.91,105.2.27.7-12.81.2-26,.33-39.26s.2-26.43.3-40.16h12.84c2.35,8.83,2.59,172.66.26,183.63h-12.32c-.36-3.88-1-7.71-1-11.54-.1-21.66,0-43.32-.09-65,0-3.89-.53-7.77-.85-12.23H1468.86c-.8,29.45.15,58.62-.55,88.59h-13.23c-.32-3.43-.93-6.94-.93-10.45q-.09-81,0-161.91C1454.14,1655.61,1454.64,1652.05,1454.94,1648.05Z"/><path d="M1681.53,1831.21c1.3-3.8,2.22-6.93,3.43-10q33-82.56,66.13-165c1.65-4.09,1.94-9.77,8.22-10,7-.2,7.14,6.09,8.84,10.41q32.08,81.3,63.88,162.72c1.43,3.65,2.56,7.43,4.08,11.89-2.93.48-5.09.82-7.24,1.19-6.18,1-8.89-2.3-10.89-7.67-5.83-15.59-12-31-18.12-46.54-4.14-10.54-4.17-10.59-14.91-10.62-18,0-36,.24-54-.13-6.7-.13-10.26,2.22-12.59,8.55-5.74,15.62-12.09,31-18.23,46.5C1695.8,1833.49,1695.78,1833.48,1681.53,1831.21Zm108.92-76.84c-10.79-28.87-20.62-55.2-31-83-10.79,28-21,54.42-31.77,82.36C1749.07,1755.21,1768.75,1754.48,1790.45,1754.37Z"/><path d="M2763.58,1831.73c-3,.35-4.65.67-6.26.71-8.49.18-8.68.17-11.78-7.58-5.44-13.59-10.7-27.25-16-40.88a95,95,0,0,1-3.63-9.29c-1.5-5.42-4.91-7.16-10.32-7.11q-29.46.29-58.91,0c-5.51-.06-8.42,2.06-10.35,7.19-6,15.87-12.31,31.61-18.58,47.38-4.58,11.55-4.79,11.61-18.71,9,1-3.16,1.84-6.26,3-9.22q33.16-82.92,66.46-165.79c1.63-4,1.94-9.73,8.28-9.87s6.84,5.46,8.45,9.55q32.54,82.64,64.9,165.34C2761.31,1824.16,2762.16,1827.33,2763.58,1831.73Zm-76.73-160.4c-10.89,28.23-21.1,54.71-32,83,21.6.1,41.43.85,62.76-.59C2707.16,1725.81,2697.35,1699.47,2686.85,1671.33Z"/><path d="M2189.22,1819.24v11.22c-7.14,2.42-84.85,3.23-99.57,1.14-2.41-6.86-3.35-166.47-1.07-182.17,6.84-2.37,82.85-3.26,100.52-1,.21,3.14.44,6.53.74,11.11-10.29,1.61-19.88.65-29.37.82-9.33.17-18.66,0-28,0h-29.43v66.86c3.69.39,7.5,1.11,11.3,1.14,19,.12,38,0,57,.09,3.93,0,7.86.45,12.53.74v12.42c-26.65,1.34-53.18-.08-79.44.8-2.53,7.44-3.14,63.4-.79,76.78Z"/><path d="M2567.34,1817.17c1.76,11.08,1.77,11.6-7,13.72-21.31,5.17-43,6.27-64.21.77-24.2-6.26-40.93-22.22-49.6-45.42-11.48-30.76-12.06-62.09,1-92.53,12.86-30,36.78-45.43,69-48.2,15.35-1.32,30.6-.49,45.41,4.21,4.06,1.28,8,3,13.09,5l-4.57,12.16c-3.76-1.27-6.85-2.14-9.81-3.32-16.26-6.47-33.29-7.57-50.11-4.53-25.74,4.65-43.15,20.39-51.2,45.19a114.47,114.47,0,0,0,1.1,75.5c9.22,25.72,31.36,41.12,58.72,42,13.68.42,27.26-.15,40.62-3.58A58.47,58.47,0,0,1,2567.34,1817.17Z"/><path d="M1352.72,1831.85h-13.26c-.31-5.1-.82-9.68-.82-14.25q-.09-71.41-.07-142.83c0-4.25-.42-8.49-.72-14.11h-57.73v-12.45H1412c.22,3.56.42,7,.69,11.45-19.45,2.11-38.36-.27-58.12,1.52-.35,4.4-.95,8.57-1,12.75q-.09,72.4-.08,144.82C1353.54,1823,1353,1827.2,1352.72,1831.85Z"/><path d="M1126,2218.47c.06,16.24-13.09,29.71-28.8,29.53-15.07-.19-28-13.61-28.16-29.34a28.28,28.28,0,0,1,29-29C1114,2189.81,1126,2202.14,1126,2218.47Z"/><path d="M2384.53,1648.09h12.2a100.78,100.78,0,0,1,1.1,10.48q.11,81.3,0,162.6c0,3.25-.45,6.51-.73,10.47H2385.2C2383.07,1824.21,2382.38,1663.1,2384.53,1648.09Z"/><path d="M600.82,2074.15v-33.94h51.67c1.68,11.38,1.22,22.39.18,33.94Z"/><path d="M662.33,501.08c1.42-73.55,4.15-137.42,15.66-200.59,9.84-54.05,24.4-106.55,51.28-154.93C770.18,72,831.14,25.25,914.27,9c52-10.15,104-9.84,155.64,2.89,64,15.76,113.89,51.84,152,105.15,37.31,52.26,58.6,111.1,71.67,173.34,9.33,44.44,15.22,89.36,16.5,134.74,1.13,40.28,2.57,80.65,1.26,120.9-2.44,75.11-10.84,149.55-33.92,221.58-13.82,43.12-32.4,83.89-61.09,119.48-33.42,41.45-75.51,70.25-126.62,85-64.15,18.56-128.89,19.92-193.43,2.24-65.75-18-115.17-58.3-151.92-115-28.28-43.59-45.9-91.61-58.08-141.79a769.73,769.73,0,0,1-20.5-142.23C664.3,547.46,663.17,519.51,662.33,501.08Zm496.23-5.62-1,0c-.51-21-.81-42-1.56-63-1.33-37-4.24-73.83-10-110.41-5.3-34-12.58-67.51-26.14-99.32-9.38-22-22.38-41.61-39.9-58.1-22.89-21.53-50.57-32-81.38-34-49.87-3.19-91.91,12.51-122.41,53.75-18.34,24.8-29,53.12-36.49,82.72-15.22,59.79-19.54,121-21.35,182.27a1419.6,1419.6,0,0,0,3.19,151.84c2.77,35.6,6.85,71,14.48,105.86,7.31,33.41,18.05,65.56,37.89,94,19.95,28.59,46.7,47,81,54.16a160.15,160.15,0,0,0,43.78,2.65c38.06-2.66,70-17.89,94.6-47.49,14.89-17.89,25.54-38.08,33.14-60,14.29-41.24,21.47-84,25.09-127.18C1155.14,580.7,1156.33,538,1158.56,495.46Z"/><path d="M1993.73,496.15c-2,38.68-2.94,77.68-6.21,116.48-5.12,60.61-16,120.21-37.41,177.47-14.94,39.95-34.7,77.08-63.57,109-30,33.16-66.24,56.48-108.49,70.65-31.53,10.58-64,15.52-97.21,16.33-32.8.8-65.23-1.42-97.14-9.69-62.61-16.23-112.15-51.22-149.7-103.55-32-44.54-51.81-94.5-65.33-147.18-10.78-42-17-84.84-21-128.06-5-54.23-5.07-108.55-3.1-162.81,2.39-65.69,9.76-130.89,27.45-194.52,12.4-44.6,29.72-86.94,56.8-124.93q58.25-81.73,156-104.1c53.43-12.22,107.1-12.73,160.56-.63,64.88,14.7,116.1,50.18,155.09,103.87,32.82,45.19,53.82,95.63,67.46,149.42A702.22,702.22,0,0,1,1988.14,390C1990.48,425.26,1991.89,460.53,1993.73,496.15Zm-154.82-.93c-1.57-34.27-2.89-68.55-4.76-102.8a673.83,673.83,0,0,0-14.38-106.86c-6-27.42-13.66-54.32-27.35-79.09-24-43.31-58.78-71-109.5-75.34-57.09-4.9-102.55,14.7-133.6,64.13-17.28,27.51-26.55,58.09-33.29,89.5-12.55,58.57-16.14,118.1-17.47,177.76-.67,29.63.59,59.29,1.07,88.94A872.13,872.13,0,0,0,1512,683.67c5.84,34.33,14.65,67.73,31.08,98.74,10.27,19.39,23.44,36.47,41,49.73,30.77,23.18,65.92,29,103.29,24.92a126.81,126.81,0,0,0,51.85-17c30.15-18.06,49.71-44.9,62.8-76.79,17.9-43.63,25-89.78,29.79-136.25C1836.35,583.23,1838,539.27,1838.91,495.22Z"/><path d="M81.16,17.43c3.57-.31,7.12-.89,10.66-.89q236-.06,471.94,0c1.33,0,2.67,0,4,0,7.56.44,8.3,1.19,8.67,9,.1,2,0,4,0,6q0,53.51,0,107,0,4.5-.19,9c-.15,3.59-2.15,5.5-5.67,5.66s-7.32.23-11,.23q-164.48,0-329,0c-15.73,0-15.69-1.38-17,15.4-2.65,32.86-6.07,65.66-9.06,98.5-2.32,25.54-4.46,51.09-6.72,76.64-1,11-2.12,21.88-3,32.83-.31,3.87-.05,7.78-.05,12.72,3.51-.21,6.4-.14,9.2-.58,20.08-3.15,40.07-6.89,60.21-9.51C298,375,332,375.07,366,377.28c31.06,2,61.54,7.19,91.16,16.84,55.76,18.15,102.39,49.38,137.21,97.09,24.06,32.95,38.3,70.13,44.69,110.17,9.22,57.75,6.33,115.09-10.61,171.15-26.25,86.86-82.49,146.9-166,181.71-36,15-73.6,23.09-112.14,28-37.53,4.77-75.18,4.86-112.78,3.36-54.76-2.19-109-9-160.89-27.8-15.31-5.54-30-12.76-45-19.25-5-2.16-7.75-5.46-7.73-11.46.19-41.33.1-82.66.14-124a42.82,42.82,0,0,1,.95-5.85c3.24,1.31,6,2.17,8.52,3.48,52,27.21,107.42,43,165.22,51.58,31.09,4.61,62.27,7.07,93.64,5.52,41.69-2.07,81.88-10.07,118.57-31.54,34.95-20.45,57.28-50.39,67.52-89.2,9.76-37,10.67-74.4,1.86-111.8-11-46.87-39.56-79.13-83.18-98.42-29-12.82-59.67-18.12-91.06-21.18C258.4,501,211.65,508,164.83,514.76c-15.49,2.22-30.88,5.18-46.25,8.15a16.43,16.43,0,0,1-12.34-2.11C87.91,509.9,69.58,499,51.05,488.43c-5.45-3.1-7.17-7.08-6.67-13.06q4.71-56.25,9.12-112.53c2.26-28.55,4.32-57.12,6.54-85.68,2.45-31.55,5-63.08,7.45-94.62,2.27-29.56,4.38-59.13,6.67-88.68C76,70.62,77.9,47.38,79.84,24.15A68.16,68.16,0,0,1,81.16,17.43Z"/></g></g></g></svg>